<svg width="32" height="30" viewBox="0 0 32 30" fill="none" xmlns="http://www.w3.org/2000/svg">
<path id="Vector" d="M15.4998 29.9863L13.2577 27.5424C14.3161 26.5616 15.4345 25.589 16.4875 24.5287C19.9187 21.0794 23.3445 17.6274 26.7294 14.1178C28.7729 12.0054 29.0205 9.10679 27.4641 6.87118C25.3281 3.80268 21.3581 3.49584 18.6398 6.22735C14.4096 10.4794 10.192 14.7452 5.98709 19.0246L3.24158 21.8191L0.76001 19.1123C4.18305 15.7452 7.68773 12.315 11.1734 8.86571C12.9175 7.13968 14.6073 5.35613 16.3596 3.63832C20.0493 0.0164017 25.6111 -0.0219718 29.1784 3.51775C32.7456 7.05748 32.917 12.7205 29.3035 16.4164C24.8111 20.9972 20.1636 25.4164 15.4998 29.9863Z" fill="#181818"/>
</svg>
